<svg xmlns="http://www.w3.org/2000/svg" viewBox="0 0 759.88 148.89"><defs><style>.cls-1{fill:#fff;}</style></defs><g id="Layer_2" data-name="Layer 2"><g id="Layer_1-2" data-name="Layer 1"><path class="cls-1" d="M129.59,20c-6.56,0-12.54-.08-18.52.07a7.14,7.14,0,0,0-3.28,1.44c-5.32,3.42-12.05,2.66-15.91-1.87A12.31,12.31,0,0,1,92,4c4.27-4.67,10.28-5.17,15.91-1.66A11.7,11.7,0,0,0,113.66,4c10.16.16,20.32.08,31,.08.08,1.54.2,2.87.2,4.2,0,23.13.08,46.27,0,69.41-.11,35-28.77,66.41-63.5,70.68C42.58,153.12,6.59,125.31,1,85.06-.12,77,.18,68.66.13,60.45,0,43.17.21,25.88,0,8.6,0,4.82,1.11,3.88,4.73,4c9.33.23,18.67.15,28,0A9.86,9.86,0,0,0,37.65,2.4c5.56-3.57,11.83-3.11,16,1.42A12.1,12.1,0,0,1,54,19.51c-3.83,4.61-10.4,5.4-15.89,2.18a11.61,11.61,0,0,0-5.33-1.6c-5.4-.21-10.82-.08-16.44-.08-.14,1.43-.33,2.5-.33,3.57,0,17.84-.12,35.68,0,53.52.23,24.45,17.25,46.94,40.63,54,27.36,8.29,57.08-6.07,67.92-32.7a67.24,67.24,0,0,0,4.78-25.23c.11-16.45.15-32.89.22-49.33C129.6,22.77,129.59,21.67,129.59,20Z"/><path class="cls-1" d="M61.81,85.27c-5.23,0-9.94,0-14.65,0C39.83,85.17,35,80.74,35,74.33s4.87-10.64,12.3-10.72c4.45,0,8.91-.07,13.37-.13.23,0,.47-.22,1.13-.55,0-4.92-.14-10,0-15.16.16-4.66,2.3-8.3,6.7-10.21,4.12-1.78,8.23-1.12,11.14,2.12A14.33,14.33,0,0,1,83,47.35c.51,5.09.15,10.27.15,16.25,5.37,0,10.59-.07,15.81,0s9.16,2.81,10.69,7.17c2.57,7.29-2.45,14.1-10.84,14.45-5,.2-10,0-15.66,0,0,5.1,0,9.92,0,14.73,0,7.41-3.94,12-10.25,12.17s-11-4.8-11.08-12C61.75,95.4,61.81,90.68,61.81,85.27Zm20.73-1.06V64.86H63.15V84.21Z"/><polygon class="cls-1" points="218.32 75.64 217.33 75.64 192.1 14.08 173.27 14.08 173.27 99.04 188.04 99.04 188.04 40.55 188.83 40.55 212.31 98.79 223.34 98.79 246.82 40.67 247.61 40.67 247.61 99.04 262.38 99.04 262.38 14.08 243.54 14.08 218.32 75.64"/><path class="cls-1" d="M326.32,42.21A25.5,25.5,0,0,0,317,36.38a32.62,32.62,0,0,0-11.14-1.89A29.68,29.68,0,0,0,290,38.66a28.3,28.3,0,0,0-10.51,11.61,37.84,37.84,0,0,0-3.76,17.28,37.91,37.91,0,0,0,3.74,17.36,26.8,26.8,0,0,0,10.68,11.37,32.53,32.53,0,0,0,16.53,4A35.86,35.86,0,0,0,319.87,98a24.57,24.57,0,0,0,9.48-6.39,21.92,21.92,0,0,0,5-9.68l-14-1.58a11.58,11.58,0,0,1-2.95,4.52,12.82,12.82,0,0,1-4.6,2.76,17.87,17.87,0,0,1-5.93.93,16.82,16.82,0,0,1-8.55-2.09,14.36,14.36,0,0,1-5.68-6.06,20.44,20.44,0,0,1-2-9.14H335V66.68a40.53,40.53,0,0,0-2.32-14.46A27.29,27.29,0,0,0,326.32,42.21ZM290.66,61.16a16.53,16.53,0,0,1,1.94-6.94A15.39,15.39,0,0,1,298,48.41a14.72,14.72,0,0,1,8.09-2.22,14.46,14.46,0,0,1,7.57,2,13.71,13.71,0,0,1,5.08,5.33,16.26,16.26,0,0,1,1.87,7.69Z"/><path class="cls-1" d="M390.23,45.86h-.63a28.05,28.05,0,0,0-3.27-5,17.69,17.69,0,0,0-5.73-4.52,19.74,19.74,0,0,0-9.21-1.89,24.52,24.52,0,0,0-13.31,3.75,25.79,25.79,0,0,0-9.48,11.08q-3.51,7.32-3.51,17.94t3.45,17.84a26.15,26.15,0,0,0,9.37,11.2,24.13,24.13,0,0,0,13.44,3.86,20,20,0,0,0,9.09-1.83,18.18,18.18,0,0,0,5.8-4.42A24.48,24.48,0,0,0,389.6,89h.92V99h14.76v-85h-15ZM388.77,78a15.89,15.89,0,0,1-5.1,7.23,14.13,14.13,0,0,1-16.45-.08,16.31,16.31,0,0,1-5.1-7.34,30.57,30.57,0,0,1-1.72-10.64,30.38,30.38,0,0,1,1.7-10.54,15.84,15.84,0,0,1,5.06-7.22,14.64,14.64,0,0,1,16.57-.08,15.42,15.42,0,0,1,5.06,7.09,30.41,30.41,0,0,1,1.73,10.75A30.82,30.82,0,0,1,388.77,78Z"/><rect class="cls-1" x="421.34" y="35.32" width="15.02" height="63.72"/><path class="cls-1" d="M428.89,10a8.71,8.71,0,0,0-6.14,2.39,7.75,7.75,0,0,0,0,11.53,9.11,9.11,0,0,0,12.3,0,7.79,7.79,0,0,0,0-11.53A8.71,8.71,0,0,0,428.89,10Z"/><polygon class="cls-1" points="448.72 26.98 474.97 26.98 474.97 99.04 490.24 99.04 490.24 26.98 516.5 26.98 516.5 14.08 448.72 14.08 448.72 26.98"/><path class="cls-1" d="M553.17,34.41a16.47,16.47,0,0,0-9.73,3,16,16,0,0,0-6,8.53h-.67V35.32H522.22V99h15V61.58a13.65,13.65,0,0,1,1.87-7.18,13.11,13.11,0,0,1,5.12-4.87,15.17,15.17,0,0,1,7.36-1.77,32.3,32.3,0,0,1,4,.27,16.45,16.45,0,0,1,3,.61V34.82a20.24,20.24,0,0,0-2.59-.31C554.93,34.44,554,34.41,553.17,34.41Z"/><path class="cls-1" d="M611,39.12a26,26,0,0,0-8.34-3.55,39.68,39.68,0,0,0-9.17-1.08,36.18,36.18,0,0,0-12.2,2,24.15,24.15,0,0,0-9.33,5.89,22.69,22.69,0,0,0-5.48,9.73l14,2a11.86,11.86,0,0,1,4.33-5.68Q588,46,593.53,46q5.24,0,8,2.57a9.43,9.43,0,0,1,2.78,7.26v.25a3.49,3.49,0,0,1-1.6,3.18,13.33,13.33,0,0,1-5.08,1.49q-3.48.48-9.08,1.06a64.61,64.61,0,0,0-9,1.59,27.93,27.93,0,0,0-7.77,3.22,15.41,15.41,0,0,0-5.44,5.64,17.93,17.93,0,0,0-2,8.92,18.82,18.82,0,0,0,2.8,10.54,17.64,17.64,0,0,0,7.63,6.45,26.24,26.24,0,0,0,10.89,2.17,24.64,24.64,0,0,0,8.69-1.39,18.13,18.13,0,0,0,10-8.65h.5V99h14.44V56.39A21.84,21.84,0,0,0,617,45.82,18.14,18.14,0,0,0,611,39.12Zm-6.6,37.06a12.38,12.38,0,0,1-1.8,6.51,13.26,13.26,0,0,1-5.13,4.79,16.07,16.07,0,0,1-7.84,1.81,13.14,13.14,0,0,1-7.71-2.12,8,8,0,0,1-1.5-11,10.11,10.11,0,0,1,4.19-2.88,26.64,26.64,0,0,1,6-1.5l3.52-.49c1.36-.2,2.73-.42,4.11-.67a36.09,36.09,0,0,0,3.75-.87,7,7,0,0,0,2.39-1.08Z"/><path class="cls-1" d="M654.3,49.07a13.69,13.69,0,0,1,8.09-2.47,12.09,12.09,0,0,1,8.69,3.09,13.84,13.84,0,0,1,4.13,7.7h14.36a23.29,23.29,0,0,0-13.63-20.06,31.82,31.82,0,0,0-13.75-2.84A30.37,30.37,0,0,0,646,38.66a28,28,0,0,0-10.56,11.61,37.81,37.81,0,0,0-3.73,17.16,37.94,37.94,0,0,0,3.67,17.07A27.77,27.77,0,0,0,645.9,96.09a30.64,30.64,0,0,0,16.37,4.19,31.19,31.19,0,0,0,13.94-2.92,23.36,23.36,0,0,0,9.37-8.13,24.86,24.86,0,0,0,4-12H675.21a14.21,14.21,0,0,1-2.45,5.85,11.74,11.74,0,0,1-4.41,3.67,14.61,14.61,0,0,1-14.11-1.24,16.15,16.15,0,0,1-5.37-7.18A29.54,29.54,0,0,1,647,67.18a28.62,28.62,0,0,1,1.93-11A16,16,0,0,1,654.3,49.07Z"/><polygon class="cls-1" points="741.91 99.04 759.88 99.04 733.72 62.82 758.43 35.32 740.88 35.32 717.98 60.91 716.94 60.91 716.94 14.08 701.93 14.08 701.93 99.04 716.94 99.04 716.94 77.62 722.41 71.76 741.91 99.04"/><path class="cls-1" d="M187.93,126.53a11.24,11.24,0,0,0-2.46-1.31c-.86-.32-1.63-.57-2.32-.76l-2.71-.72a16.55,16.55,0,0,1-1.62-.52,8.58,8.58,0,0,1-1.7-.82,4.41,4.41,0,0,1-1.32-1.26,3.2,3.2,0,0,1-.51-1.83A3.74,3.74,0,0,1,176,117a4.93,4.93,0,0,1,2.05-1.58,7.75,7.75,0,0,1,3.09-.57,7.27,7.27,0,0,1,4.08,1.1,4,4,0,0,1,1.9,3.06h3.12a6.19,6.19,0,0,0-1.24-3.6,7.92,7.92,0,0,0-3.18-2.5,10.89,10.89,0,0,0-4.58-.92,11.1,11.1,0,0,0-4.61.93,8.08,8.08,0,0,0-3.27,2.6,6.49,6.49,0,0,0-1.22,3.91,5.64,5.64,0,0,0,1.82,4.36,12.19,12.19,0,0,0,4.94,2.56l3.28.94a19.44,19.44,0,0,1,2.61.91,5.22,5.22,0,0,1,2,1.35,3.09,3.09,0,0,1,.75,2.16,4,4,0,0,1-.86,2.54,5.61,5.61,0,0,1-2.33,1.69,8.73,8.73,0,0,1-3.32.6,9,9,0,0,1-3-.47,5.4,5.4,0,0,1-2.26-1.46,4.13,4.13,0,0,1-1-2.49h-3.33a7.31,7.31,0,0,0,1.35,3.84,7.76,7.76,0,0,0,3.27,2.57,12.15,12.15,0,0,0,4.95.93,11.94,11.94,0,0,0,5.22-1,7.71,7.71,0,0,0,3.28-2.77,7,7,0,0,0,1.13-3.9,6.09,6.09,0,0,0-.77-3.16A6.78,6.78,0,0,0,187.93,126.53Z"/><path class="cls-1" d="M223,118.79a7.08,7.08,0,0,0-3.68.92,5.82,5.82,0,0,0-2.3,2.47h-.21a5.85,5.85,0,0,0-2.06-2.49,5.73,5.73,0,0,0-3.3-.9,6,6,0,0,0-3.34.9,5,5,0,0,0-2,2.49h-.26v-3.13h-3v20h3.07V126.55a5.24,5.24,0,0,1,.63-2.6,4.72,4.72,0,0,1,1.67-1.76,4.1,4.1,0,0,1,2.23-.64,3.94,3.94,0,0,1,2.84,1,3.6,3.6,0,0,1,1.11,2.75V139h3.12V126a4.57,4.57,0,0,1,1.16-3.21,4.18,4.18,0,0,1,3.26-1.27,4.49,4.49,0,0,1,2.85,1,3.77,3.77,0,0,1,1.21,3.16V139h3.07V125.66q0-3.52-1.7-5.19A6,6,0,0,0,223,118.79Z"/><path class="cls-1" d="M254.31,120a7.26,7.26,0,0,0-2.43-.93,12.87,12.87,0,0,0-2.22-.23,12,12,0,0,0-3.06.41,8.06,8.06,0,0,0-2.87,1.43,7.07,7.07,0,0,0-2.08,2.85l2.91,1a5.63,5.63,0,0,1,1.76-2.06,5.52,5.52,0,0,1,3.44-1,4.26,4.26,0,0,1,3.17,1.07,4.07,4.07,0,0,1,1,3v.1a1.1,1.1,0,0,1-.53,1,4.49,4.49,0,0,1-1.66.42l-3,.36c-.93.12-1.85.29-2.77.49a9.42,9.42,0,0,0-2.5.92,4.79,4.79,0,0,0-1.81,1.68,5.19,5.19,0,0,0-.67,2.79,5.83,5.83,0,0,0,.91,3.32,5.77,5.77,0,0,0,2.45,2.1,8.1,8.1,0,0,0,3.45.72,7.56,7.56,0,0,0,3-.52,6.15,6.15,0,0,0,1.94-1.26,5.35,5.35,0,0,0,1-1.4H254V139h3.07V125.87a7.9,7.9,0,0,0-.78-3.8A5.53,5.53,0,0,0,254.31,120ZM254,131.8a4.76,4.76,0,0,1-.65,2.38,5,5,0,0,1-1.9,1.85,6.17,6.17,0,0,1-3.07.71,5.3,5.3,0,0,1-3-.81,2.74,2.74,0,0,1-1.19-2.41,2.61,2.61,0,0,1,.64-1.86,3.81,3.81,0,0,1,1.66-1,12.35,12.35,0,0,1,2.23-.51L250,130c.54-.06,1.09-.14,1.66-.23a11.71,11.71,0,0,0,1.5-.33A1.74,1.74,0,0,0,254,129Z"/><path class="cls-1" d="M278.36,118.74a5.78,5.78,0,0,0-3.22.93,4.76,4.76,0,0,0-2,2.4H273v-3h-3v20h3.07V126.39a4.53,4.53,0,0,1,.65-2.41,4.67,4.67,0,0,1,1.8-1.67,5.47,5.47,0,0,1,2.59-.6,8.72,8.72,0,0,1,1.17.08l.71.13v-3.13c-.18,0-.43,0-.77,0Z"/><path class="cls-1" d="M300.1,136.27a5,5,0,0,1-.84,0,3.9,3.9,0,0,1-1.28-.21,1.84,1.84,0,0,1-1-.86,3.83,3.83,0,0,1-.39-1.94V121.65h4.27v-2.6h-4.27v-4.78h-3.07v4.78h-3v2.6h3v12.49a4.84,4.84,0,0,0,.82,2.89,5,5,0,0,0,2.05,1.7,6.2,6.2,0,0,0,2.54.56,7,7,0,0,0,1.42-.12q.56-.13.87-.24l-.62-2.76Z"/><polygon class="cls-1" points="344.08 134.5 343.77 134.5 334.72 112.39 330.87 112.39 330.87 139.03 333.89 139.03 333.89 118.79 334.15 118.79 342.47 139.03 345.38 139.03 353.71 118.79 353.97 118.79 353.97 139.03 356.99 139.03 356.99 112.39 353.14 112.39 344.08 134.5"/><path class="cls-1" d="M384.26,121a7.7,7.7,0,0,0-2.77-1.69,9.67,9.67,0,0,0-3.08-.52,8.45,8.45,0,0,0-4.73,1.32,8.85,8.85,0,0,0-3.15,3.67,12.41,12.41,0,0,0-1.12,5.42,12.17,12.17,0,0,0,1.12,5.38,8.41,8.41,0,0,0,3.22,3.58,9.24,9.24,0,0,0,5,1.29,10,10,0,0,0,3.65-.63,7.42,7.42,0,0,0,2.73-1.77,6.47,6.47,0,0,0,1.58-2.65l-3-.83a4.71,4.71,0,0,1-1.1,1.73,4.49,4.49,0,0,1-1.7,1,6.53,6.53,0,0,1-2.19.35,6.45,6.45,0,0,1-3.27-.81,5.68,5.68,0,0,1-2.19-2.38,8.21,8.21,0,0,1-.76-3.42H387v-1.3a13.23,13.23,0,0,0-.74-4.71A8.09,8.09,0,0,0,384.26,121Zm-11.76,6.43a6.84,6.84,0,0,1,.69-2.63,6.11,6.11,0,0,1,2.05-2.35,5.52,5.52,0,0,1,3.17-.9,5.35,5.35,0,0,1,2.89.77,5.19,5.19,0,0,1,1.9,2.09,6.58,6.58,0,0,1,.67,3Z"/><path class="cls-1" d="M412.63,122.23h-.26c-.23-.35-.54-.79-.95-1.34a5.46,5.46,0,0,0-1.74-1.45,6.28,6.28,0,0,0-3.09-.65,7.89,7.89,0,0,0-4.45,1.27,8.4,8.4,0,0,0-3,3.57,14.44,14.44,0,0,0,0,11,8.51,8.51,0,0,0,3,3.59,7.86,7.86,0,0,0,4.41,1.27,6.32,6.32,0,0,0,3.08-.65,5.56,5.56,0,0,0,1.78-1.47c.42-.55.74-1,1-1.37h.36V139h3V112.4h-3.07ZM412,133a6.05,6.05,0,0,1-1.94,2.69,5.55,5.55,0,0,1-6.34-.05,6.1,6.1,0,0,1-1.95-2.76,10.84,10.84,0,0,1-.66-3.87,10.63,10.63,0,0,1,.64-3.8,6,6,0,0,1,1.94-2.69,5.14,5.14,0,0,1,3.25-1,5.2,5.2,0,0,1,3.14.94,5.83,5.83,0,0,1,1.93,2.63,10.92,10.92,0,0,1,.65,3.92A11.12,11.12,0,0,1,412,133Z"/><path class="cls-1" d="M430.61,111.56a2.2,2.2,0,0,0-1.54.61,2,2,0,0,0-.64,1.47,1.93,1.93,0,0,0,.64,1.47,2.24,2.24,0,0,0,3.09,0,2,2,0,0,0,.64-1.47,2,2,0,0,0-.64-1.47A2.21,2.21,0,0,0,430.61,111.56Z"/><rect class="cls-1" x="429.05" y="119.05" width="3.07" height="19.98"/><path class="cls-1" d="M450,122.48a5.38,5.38,0,0,1,3.14-.93,4.69,4.69,0,0,1,3.23,1.06A4.9,4.9,0,0,1,458,125H461a6.89,6.89,0,0,0-1.34-3.28,7.3,7.3,0,0,0-2.77-2.19,9,9,0,0,0-3.8-.78,8.47,8.47,0,0,0-4.73,1.32,8.82,8.82,0,0,0-3.15,3.66,12.23,12.23,0,0,0-1.12,5.38,12.4,12.4,0,0,0,1.09,5.32,9,9,0,0,0,11.84,4.15,7.13,7.13,0,0,0,4-5.42H458a4.62,4.62,0,0,1-1,1.88,4.37,4.37,0,0,1-1.65,1.19,5.78,5.78,0,0,1-5.34-.53,6.12,6.12,0,0,1-2.08-2.67,10.14,10.14,0,0,1-.73-4,9.58,9.58,0,0,1,.75-3.94A6,6,0,0,1,450,122.48Z"/><path class="cls-1" d="M485.13,120a7.18,7.18,0,0,0-2.43-.93,12.87,12.87,0,0,0-2.22-.23,12,12,0,0,0-3.06.41,7.94,7.94,0,0,0-2.86,1.43,7.09,7.09,0,0,0-2.09,2.85l2.91,1a5.73,5.73,0,0,1,1.76-2.06,5.52,5.52,0,0,1,3.44-1,4.26,4.26,0,0,1,3.17,1.07,4.07,4.07,0,0,1,1.05,3v.1a1.1,1.1,0,0,1-.53,1,4.43,4.43,0,0,1-1.66.42l-3,.36c-.93.12-1.85.29-2.77.49a9.55,9.55,0,0,0-2.5.92,4.79,4.79,0,0,0-1.81,1.68,5.19,5.19,0,0,0-.67,2.79,5.83,5.83,0,0,0,.91,3.32,5.74,5.74,0,0,0,2.46,2.1,8.06,8.06,0,0,0,3.44.72,7.56,7.56,0,0,0,3-.52,6,6,0,0,0,1.94-1.26,5.35,5.35,0,0,0,1-1.4h.16V139h3.07V125.87a7.9,7.9,0,0,0-.78-3.8A5.53,5.53,0,0,0,485.13,120Zm-.33,11.85a4.76,4.76,0,0,1-.65,2.38,5,5,0,0,1-1.89,1.85,6.23,6.23,0,0,1-3.08.71,5.25,5.25,0,0,1-3-.81,2.72,2.72,0,0,1-1.19-2.41,2.65,2.65,0,0,1,.63-1.86,3.81,3.81,0,0,1,1.66-1,12.35,12.35,0,0,1,2.23-.51l1.3-.16c.53-.06,1.08-.14,1.65-.23a11.89,11.89,0,0,0,1.51-.33,1.74,1.74,0,0,0,.85-.42Z"/><rect class="cls-1" x="500.81" y="112.4" width="3.07" height="26.63"/><path class="cls-1" d="M550.2,126.53a10.81,10.81,0,0,0-2.46-1.31c-.85-.32-1.62-.57-2.32-.76l-2.7-.72a16.68,16.68,0,0,1-1.63-.52,8.5,8.5,0,0,1-1.69-.82,4.19,4.19,0,0,1-1.32-1.26,3.2,3.2,0,0,1-.51-1.83,3.73,3.73,0,0,1,.73-2.27,5,5,0,0,1,2.06-1.58,7.75,7.75,0,0,1,3.09-.57,7.27,7.27,0,0,1,4.08,1.1,4.08,4.08,0,0,1,1.9,3.06h3.12a6.26,6.26,0,0,0-1.24-3.6,8.06,8.06,0,0,0-3.18-2.5,10.92,10.92,0,0,0-4.58-.92,11.07,11.07,0,0,0-4.61.93,8.11,8.11,0,0,0-3.28,2.6,6.49,6.49,0,0,0-1.21,3.91,5.6,5.6,0,0,0,1.82,4.36,12.19,12.19,0,0,0,4.94,2.56l3.28.94a20.47,20.47,0,0,1,2.61.91,5.22,5.22,0,0,1,1.95,1.35,3.08,3.08,0,0,1,.74,2.16,3.92,3.92,0,0,1-.86,2.54,5.58,5.58,0,0,1-2.32,1.69,8.73,8.73,0,0,1-3.32.6,8.92,8.92,0,0,1-3-.47,5.34,5.34,0,0,1-2.26-1.46,4,4,0,0,1-1-2.49h-3.33a7.3,7.3,0,0,0,1.34,3.84,7.86,7.86,0,0,0,3.28,2.57,12.08,12.08,0,0,0,4.95.93,11.94,11.94,0,0,0,5.22-1,7.71,7.71,0,0,0,3.28-2.77,7,7,0,0,0,1.12-3.9,6.09,6.09,0,0,0-.76-3.16A6.81,6.81,0,0,0,550.2,126.53Z"/><path class="cls-1" d="M572.62,135h-.21l-5.51-15.92h-3.33L571,139.13l-.57,1.56a6.19,6.19,0,0,1-1.23,2.21,2.39,2.39,0,0,1-1.53.76,5.94,5.94,0,0,1-2-.21l-.78,2.71a3.56,3.56,0,0,0,.84.24,7.27,7.27,0,0,0,1.39.12,6.11,6.11,0,0,0,2.51-.49,5.34,5.34,0,0,0,1.95-1.52,8.6,8.6,0,0,0,1.42-2.57l8.48-22.89h-3.33Z"/><path class="cls-1" d="M602.05,128.05l-3-.72a7.16,7.16,0,0,1-2.61-1.11,2.19,2.19,0,0,1-.83-1.81,2.5,2.5,0,0,1,1.22-2.12,5.25,5.25,0,0,1,3-.84,4.9,4.9,0,0,1,2.2.43,3.67,3.67,0,0,1,1.35,1.08,5.43,5.43,0,0,1,.77,1.35l2.75-.78a7,7,0,0,0-2.41-3.44,7.54,7.54,0,0,0-4.66-1.3,9.06,9.06,0,0,0-3.77.75,6.38,6.38,0,0,0-2.61,2,5.2,5.2,0,0,0,.32,6.43,7.92,7.92,0,0,0,4,2l3.33.78a4.73,4.73,0,0,1,2.24,1.06,2.36,2.36,0,0,1,.72,1.75,2.66,2.66,0,0,1-1.26,2.2,5.68,5.68,0,0,1-3.42.92,5.31,5.31,0,0,1-3-.8,4.1,4.1,0,0,1-1.58-2.42l-2.91.72a5.85,5.85,0,0,0,2.54,3.88,9,9,0,0,0,5,1.33,10,10,0,0,0,4.09-.78,6.5,6.5,0,0,0,2.73-2.14,5.05,5.05,0,0,0,1-3.07A4.66,4.66,0,0,0,606,130,8.21,8.21,0,0,0,602.05,128.05Z"/><path class="cls-1" d="M627.22,136.27a4.91,4.91,0,0,1-.83,0,3.92,3.92,0,0,1-1.29-.21,1.84,1.84,0,0,1-1-.86,3.83,3.83,0,0,1-.39-1.94V121.65H628v-2.6h-4.27v-4.78h-3.07v4.78h-3v2.6h3v12.49a4.84,4.84,0,0,0,.82,2.89,5,5,0,0,0,2,1.7,6.2,6.2,0,0,0,2.54.56,6.89,6.89,0,0,0,1.42-.12q.56-.13.87-.24l-.62-2.76Z"/><path class="cls-1" d="M653.66,121a7.7,7.7,0,0,0-2.77-1.69,9.62,9.62,0,0,0-3.08-.52,8.45,8.45,0,0,0-4.73,1.32,8.85,8.85,0,0,0-3.15,3.67,12.41,12.41,0,0,0-1.12,5.42,12.17,12.17,0,0,0,1.12,5.38,8.41,8.41,0,0,0,3.22,3.58,9.27,9.27,0,0,0,5,1.29,10,10,0,0,0,3.65-.63,7.54,7.54,0,0,0,2.74-1.77,6.56,6.56,0,0,0,1.57-2.65l-3-.83a4.59,4.59,0,0,1-1.1,1.73,4.49,4.49,0,0,1-1.7,1,6.53,6.53,0,0,1-2.19.35,6.38,6.38,0,0,1-3.26-.81,5.64,5.64,0,0,1-2.2-2.38,8.21,8.21,0,0,1-.76-3.42h14.49v-1.3a13.23,13.23,0,0,0-.74-4.71A8.09,8.09,0,0,0,653.66,121Zm-11.76,6.43a6.84,6.84,0,0,1,.69-2.63,6.11,6.11,0,0,1,2-2.35,5.54,5.54,0,0,1,3.17-.9,5.35,5.35,0,0,1,2.89.77,5.19,5.19,0,0,1,1.9,2.09,6.58,6.58,0,0,1,.67,3Z"/><path class="cls-1" d="M692.91,120.47a6,6,0,0,0-4.38-1.68,7.05,7.05,0,0,0-3.68.92,5.82,5.82,0,0,0-2.3,2.47h-.21a5.92,5.92,0,0,0-2.06-2.49,5.73,5.73,0,0,0-3.3-.9,6,6,0,0,0-3.34.9,5,5,0,0,0-2,2.49h-.26v-3.13h-3v20h3.07V126.55a5.24,5.24,0,0,1,.63-2.6,4.69,4.69,0,0,1,1.66-1.76,4.13,4.13,0,0,1,2.23-.64,4,4,0,0,1,2.85,1,3.6,3.6,0,0,1,1.11,2.75V139h3.12V126a4.56,4.56,0,0,1,1.15-3.21,4.2,4.2,0,0,1,3.27-1.27,4.51,4.51,0,0,1,2.85,1,3.8,3.8,0,0,1,1.21,3.16V139h3.07V125.66Q694.62,122.14,692.91,120.47Z"/></g></g></svg>