<svg xmlns="http://www.w3.org/2000/svg" viewBox="0 0 588.44 136.55"><defs><style>.cls-1{fill:#fff;}</style></defs><g id="Layer_2" data-name="Layer 2"><g id="Layer_1-2" data-name="Layer 1"><polygon class="cls-1" points="46.88 65.67 45.88 65.67 20.66 4.11 1.83 4.11 1.83 89.06 16.6 89.06 16.6 30.57 17.39 30.57 40.87 88.81 51.9 88.81 75.38 30.7 76.17 30.7 76.17 89.06 90.94 89.06 90.94 4.11 72.1 4.11 46.88 65.67"/><path class="cls-1" d="M154.88,32.23a25.72,25.72,0,0,0-9.29-5.83,32.86,32.86,0,0,0-11.14-1.88,29.68,29.68,0,0,0-15.89,4.17A28.17,28.17,0,0,0,108.05,40.3a37.81,37.81,0,0,0-3.76,17.28A37.94,37.94,0,0,0,108,74.94a26.68,26.68,0,0,0,10.68,11.37,32.64,32.64,0,0,0,16.53,4,36.07,36.07,0,0,0,13.19-2.26,24.68,24.68,0,0,0,9.48-6.39A21.9,21.9,0,0,0,163,72l-14-1.57a11.73,11.73,0,0,1-3,4.52,13,13,0,0,1-4.6,2.76,17.87,17.87,0,0,1-5.93.93,16.93,16.93,0,0,1-8.55-2.09,14.36,14.36,0,0,1-5.68-6.06,20.45,20.45,0,0,1-2-9.15h44.38v-4.6a40.45,40.45,0,0,0-2.32-14.46A27.42,27.42,0,0,0,154.88,32.23Zm-35.66,19a16.56,16.56,0,0,1,1.93-6.95,15.57,15.57,0,0,1,5.42-5.81,14.81,14.81,0,0,1,8.09-2.22,14.46,14.46,0,0,1,7.57,1.95,13.67,13.67,0,0,1,5.08,5.34,16.23,16.23,0,0,1,1.87,7.69Z"/><path class="cls-1" d="M218.78,35.88h-.62a27.74,27.74,0,0,0-3.28-5,17.67,17.67,0,0,0-5.72-4.53A19.93,19.93,0,0,0,200,24.52a24.58,24.58,0,0,0-13.32,3.75,25.78,25.78,0,0,0-9.47,11.08q-3.51,7.32-3.51,17.94t3.44,17.84a26.3,26.3,0,0,0,9.38,11.2,24.1,24.1,0,0,0,13.44,3.85A20,20,0,0,0,209,88.36a18.25,18.25,0,0,0,5.81-4.42A24.8,24.8,0,0,0,218.16,79h.91v10h14.77V4.11H218.78ZM217.33,68a15.92,15.92,0,0,1-5.1,7.24,14.18,14.18,0,0,1-16.45-.08,16.36,16.36,0,0,1-5.1-7.34A30.6,30.6,0,0,1,189,57.21a30.15,30.15,0,0,1,1.7-10.54,15.79,15.79,0,0,1,5.06-7.22,14.64,14.64,0,0,1,16.57-.08,15.37,15.37,0,0,1,5.06,7.09,30.34,30.34,0,0,1,1.72,10.75A30.73,30.73,0,0,1,217.33,68Z"/><rect class="cls-1" x="249.9" y="25.35" width="15.02" height="63.72"/><path class="cls-1" d="M257.45,0a8.71,8.71,0,0,0-6.14,2.39,7.59,7.59,0,0,0-2.58,5.78,7.56,7.56,0,0,0,2.58,5.75,9.14,9.14,0,0,0,12.3,0,7.6,7.6,0,0,0,2.55-5.75,7.63,7.63,0,0,0-2.55-5.78A8.71,8.71,0,0,0,257.45,0Z"/><polygon class="cls-1" points="277.27 17.01 303.53 17.01 303.53 89.06 318.8 89.06 318.8 17.01 345.06 17.01 345.06 4.11 277.27 4.11 277.27 17.01"/><path class="cls-1" d="M381.73,24.43a16.46,16.46,0,0,0-9.73,3A16,16,0,0,0,366,36h-.67V25.35H350.78V89.06h15V51.6a13.62,13.62,0,0,1,1.87-7.17,13.14,13.14,0,0,1,5.12-4.88,15.25,15.25,0,0,1,7.36-1.76,30.41,30.41,0,0,1,4,.27,16.78,16.78,0,0,1,3,.6V24.85a20.24,20.24,0,0,0-2.59-.31C383.49,24.47,382.56,24.43,381.73,24.43Z"/><path class="cls-1" d="M439.51,29.14a25.88,25.88,0,0,0-8.33-3.54A39.75,39.75,0,0,0,422,24.52a35.93,35.93,0,0,0-12.2,2,24,24,0,0,0-9.33,5.89A22.47,22.47,0,0,0,395,42.11l14,2a12,12,0,0,1,4.34-5.69q3.21-2.4,8.73-2.4c3.49,0,6.15.85,8,2.57a9.4,9.4,0,0,1,2.78,7.26v.25a3.5,3.5,0,0,1-1.6,3.17,13,13,0,0,1-5.08,1.49c-2.32.32-5.35.68-9.09,1.06a64.74,64.74,0,0,0-9,1.6,27.8,27.8,0,0,0-7.78,3.21,15.49,15.49,0,0,0-5.43,5.65,17.93,17.93,0,0,0-2,8.92,18.79,18.79,0,0,0,2.8,10.53,17.51,17.51,0,0,0,7.63,6.45,26.24,26.24,0,0,0,10.89,2.18A24.64,24.64,0,0,0,422.94,89a18.4,18.4,0,0,0,6.18-3.69,18.18,18.18,0,0,0,3.84-5h.5v8.75h14.43V46.42a21.88,21.88,0,0,0-2.3-10.58A18.24,18.24,0,0,0,439.51,29.14Zm-6.59,37.07a12.29,12.29,0,0,1-1.81,6.51A13.17,13.17,0,0,1,426,77.51a16.19,16.19,0,0,1-7.84,1.81,13.14,13.14,0,0,1-7.71-2.12,7.14,7.14,0,0,1-3-6.26,7.19,7.19,0,0,1,1.53-4.75,10.07,10.07,0,0,1,4.19-2.89,26.13,26.13,0,0,1,6-1.49l3.52-.5q2-.29,4.11-.66a36.09,36.09,0,0,0,3.75-.87,7,7,0,0,0,2.39-1.08Z"/><path class="cls-1" d="M482.86,39.1A13.62,13.62,0,0,1,491,36.63a12.09,12.09,0,0,1,8.69,3.09,13.9,13.9,0,0,1,4.13,7.7h14.35A23.22,23.22,0,0,0,504.5,27.36a31.67,31.67,0,0,0-13.75-2.84,30.37,30.37,0,0,0-16.16,4.17A28,28,0,0,0,464,40.3a37.77,37.77,0,0,0-3.73,17.15A37.88,37.88,0,0,0,464,74.52a27.74,27.74,0,0,0,10.49,11.6,30.73,30.73,0,0,0,16.37,4.19,31.19,31.19,0,0,0,13.94-2.93,23.36,23.36,0,0,0,9.37-8.13,24.85,24.85,0,0,0,4-12H503.77a14.1,14.1,0,0,1-2.45,5.84,11.85,11.85,0,0,1-4.41,3.68,14.58,14.58,0,0,1-14.11-1.25,16,16,0,0,1-5.37-7.18,29.48,29.48,0,0,1-1.91-11.17,28.43,28.43,0,0,1,1.93-11A16,16,0,0,1,482.86,39.1Z"/><polygon class="cls-1" points="570.47 89.06 588.44 89.06 562.28 52.85 586.98 25.35 569.44 25.35 546.54 50.94 545.5 50.94 545.5 4.11 530.49 4.11 530.49 89.06 545.5 89.06 545.5 67.65 550.97 61.79 570.47 89.06"/><path class="cls-1" d="M16.48,116.55A11.37,11.37,0,0,0,14,115.24a23.64,23.64,0,0,0-2.33-.75L9,113.76c-.49-.13-1-.3-1.63-.51a9.09,9.09,0,0,1-1.69-.82,4.41,4.41,0,0,1-1.32-1.26,3.22,3.22,0,0,1-.51-1.83,3.76,3.76,0,0,1,.73-2.28,5,5,0,0,1,2.06-1.57,7.75,7.75,0,0,1,3.09-.57A7.26,7.26,0,0,1,13.81,106a4.1,4.1,0,0,1,1.9,3.07h3.12a6.26,6.26,0,0,0-1.24-3.6A8.1,8.1,0,0,0,14.41,103a10.92,10.92,0,0,0-4.58-.91,11.1,11.1,0,0,0-4.61.93,8,8,0,0,0-3.28,2.6A6.46,6.46,0,0,0,.73,109.5a5.63,5.63,0,0,0,1.82,4.35,12.2,12.2,0,0,0,4.94,2.57l3.28.93a21.53,21.53,0,0,1,2.61.91,5.46,5.46,0,0,1,1.95,1.35,3.12,3.12,0,0,1,.74,2.16,4,4,0,0,1-.85,2.55A5.77,5.77,0,0,1,12.89,126a8.73,8.73,0,0,1-3.32.6,9.18,9.18,0,0,1-3-.47,5.43,5.43,0,0,1-2.26-1.46,4.13,4.13,0,0,1-1-2.49H0A7.23,7.23,0,0,0,1.35,126a7.76,7.76,0,0,0,3.27,2.57,12.12,12.12,0,0,0,5,.92,12.09,12.09,0,0,0,5.22-1,7.78,7.78,0,0,0,3.28-2.77,7.08,7.08,0,0,0,1.13-3.9,6.06,6.06,0,0,0-.77-3.16A6.73,6.73,0,0,0,16.48,116.55Z"/><path class="cls-1" d="M51.54,108.82a7.05,7.05,0,0,0-3.68.92,5.86,5.86,0,0,0-2.3,2.46h-.21a6,6,0,0,0-2.06-2.49,5.8,5.8,0,0,0-3.3-.89,6.1,6.1,0,0,0-3.34.89,5.12,5.12,0,0,0-2,2.49h-.25v-3.12h-3v20h3.07V116.57a5.2,5.2,0,0,1,.63-2.59,4.8,4.8,0,0,1,1.66-1.77,4.23,4.23,0,0,1,2.23-.63,4,4,0,0,1,2.85,1A3.62,3.62,0,0,1,43,115.37v13.69h3.12v-13a4.52,4.52,0,0,1,1.16-3.2,4.18,4.18,0,0,1,3.26-1.27,4.45,4.45,0,0,1,2.85,1,3.76,3.76,0,0,1,1.21,3.16v13.37h3.07V115.69q0-3.52-1.71-5.2A6,6,0,0,0,51.54,108.82Z"/><path class="cls-1" d="M82.87,110a7.23,7.23,0,0,0-2.44-.93,12.67,12.67,0,0,0-2.21-.23,12.17,12.17,0,0,0-3.07.41,7.94,7.94,0,0,0-2.86,1.43,7,7,0,0,0-2.08,2.84l2.91,1a5.61,5.61,0,0,1,1.76-2.05,5.52,5.52,0,0,1,3.44-1,4.28,4.28,0,0,1,3.17,1.07,4.08,4.08,0,0,1,1.05,3v.11a1.1,1.1,0,0,1-.53,1,4.49,4.49,0,0,1-1.67.42c-.76.08-1.74.2-3,.36-.92.12-1.84.28-2.76.49a9.4,9.4,0,0,0-2.5.91,4.75,4.75,0,0,0-1.81,1.69,5.14,5.14,0,0,0-.68,2.79A5.65,5.65,0,0,0,73,128.8a8.07,8.07,0,0,0,3.45.72,7.42,7.42,0,0,0,3-.52,5.82,5.82,0,0,0,1.94-1.26,5.56,5.56,0,0,0,1-1.39h.16v2.71H85.6V115.9a7.88,7.88,0,0,0-.78-3.8A5.44,5.44,0,0,0,82.87,110Zm-.33,11.85a4.76,4.76,0,0,1-.65,2.38,4.88,4.88,0,0,1-1.9,1.84,6.06,6.06,0,0,1-3.07.72,5.21,5.21,0,0,1-3-.82,2.73,2.73,0,0,1-1.19-2.41,2.61,2.61,0,0,1,.63-1.85,3.86,3.86,0,0,1,1.67-1,12.35,12.35,0,0,1,2.23-.5l1.29-.16,1.65-.24a13.56,13.56,0,0,0,1.51-.32,2,2,0,0,0,.86-.42Z"/><path class="cls-1" d="M106.92,108.77a5.85,5.85,0,0,0-3.22.92,4.77,4.77,0,0,0-2,2.41h-.21v-3h-3v20h3.07V116.42a4.48,4.48,0,0,1,.65-2.42,4.65,4.65,0,0,1,1.8-1.66,5.47,5.47,0,0,1,2.59-.61,7.31,7.31,0,0,1,1.17.09c.36.05.6.1.7.12v-3.12c-.17,0-.42,0-.76,0Z"/><path class="cls-1" d="M128.66,126.29a4.84,4.84,0,0,1-.84.06,3.9,3.9,0,0,1-1.28-.21,1.94,1.94,0,0,1-1-.86,4,4,0,0,1-.38-2V111.68h4.27v-2.6h-4.27v-4.79H122.1v4.79h-3v2.6h3v12.49a4.85,4.85,0,0,0,.81,2.88,5.08,5.08,0,0,0,2.06,1.71,6.16,6.16,0,0,0,2.54.56,6.87,6.87,0,0,0,1.42-.13,6.28,6.28,0,0,0,.87-.24l-.62-2.76Z"/><polygon class="cls-1" points="172.64 124.53 172.33 124.53 163.28 102.42 159.43 102.42 159.43 129.06 162.45 129.06 162.45 108.82 162.71 108.82 171.03 129.06 173.94 129.06 182.27 108.82 182.53 108.82 182.53 129.06 185.54 129.06 185.54 102.42 181.69 102.42 172.64 124.53"/><path class="cls-1" d="M212.82,111a7.82,7.82,0,0,0-2.77-1.68,9.4,9.4,0,0,0-3.08-.52,8.45,8.45,0,0,0-4.73,1.32,8.78,8.78,0,0,0-3.15,3.67,12.37,12.37,0,0,0-1.12,5.41,12.14,12.14,0,0,0,1.12,5.38,8.42,8.42,0,0,0,3.21,3.59,9.3,9.3,0,0,0,5,1.28,10,10,0,0,0,3.65-.63,7.42,7.42,0,0,0,2.73-1.77,6.5,6.5,0,0,0,1.58-2.64l-3-.84a4.46,4.46,0,0,1-2.8,2.78,6.62,6.62,0,0,1-2.19.35,6.45,6.45,0,0,1-3.27-.82,5.57,5.57,0,0,1-2.19-2.38,8.32,8.32,0,0,1-.77-3.41h14.5v-1.3a13.15,13.15,0,0,0-.74-4.71A8.34,8.34,0,0,0,212.82,111Zm-11.76,6.44a6.79,6.79,0,0,1,.69-2.63,6,6,0,0,1,2.05-2.35,5.52,5.52,0,0,1,3.17-.9,5.35,5.35,0,0,1,2.89.76,5.21,5.21,0,0,1,1.9,2.1,6.68,6.68,0,0,1,.67,3Z"/><path class="cls-1" d="M241.19,112.25h-.27c-.22-.34-.53-.79-.94-1.33a5.48,5.48,0,0,0-1.74-1.46,6.29,6.29,0,0,0-3.09-.64,8,8,0,0,0-4.45,1.26,8.37,8.37,0,0,0-3,3.58,14.42,14.42,0,0,0,0,11,8.45,8.45,0,0,0,3,3.59,7.74,7.74,0,0,0,4.41,1.27,6.33,6.33,0,0,0,3.08-.64,5.56,5.56,0,0,0,1.78-1.47c.42-.55.74-1,1-1.37h.37v3.07h3V102.42h-3.06Zm-.62,10.8a6,6,0,0,1-1.93,2.7,5.05,5.05,0,0,1-3.13,1,5,5,0,0,1-3.21-1,6.12,6.12,0,0,1-2-2.75,10.84,10.84,0,0,1-.66-3.87,10.69,10.69,0,0,1,.64-3.81,6,6,0,0,1,1.94-2.69,5.77,5.77,0,0,1,6.39,0,5.77,5.77,0,0,1,1.93,2.63,12.15,12.15,0,0,1,0,7.9Z"/><path class="cls-1" d="M259.17,101.59a2.14,2.14,0,0,0-1.54.61,2,2,0,0,0,0,2.94,2.25,2.25,0,0,0,3.08,0,2,2,0,0,0,0-2.94A2.14,2.14,0,0,0,259.17,101.59Z"/><rect class="cls-1" x="257.61" y="109.08" width="3.07" height="19.98"/><path class="cls-1" d="M278.6,112.51a5.38,5.38,0,0,1,3.14-.93,4.69,4.69,0,0,1,3.23,1.06,4.75,4.75,0,0,1,1.55,2.42h3.07a6.72,6.72,0,0,0-1.34-3.27,7.15,7.15,0,0,0-2.77-2.19,8.92,8.92,0,0,0-3.79-.78,8.45,8.45,0,0,0-4.73,1.32,8.85,8.85,0,0,0-3.15,3.65,13.5,13.5,0,0,0,0,10.7,9,9,0,0,0,11.84,4.16,7.09,7.09,0,0,0,4-5.42h-3.07a4.56,4.56,0,0,1-1,1.87,4.51,4.51,0,0,1-1.65,1.2,5.78,5.78,0,0,1-5.34-.53,6.24,6.24,0,0,1-2.08-2.67,10.18,10.18,0,0,1-.73-4,9.8,9.8,0,0,1,.74-3.95A6.1,6.1,0,0,1,278.6,112.51Z"/><path class="cls-1" d="M313.69,110a7.26,7.26,0,0,0-2.43-.93,12.87,12.87,0,0,0-2.22-.23,12,12,0,0,0-3.06.41,7.78,7.78,0,0,0-2.86,1.43A7,7,0,0,0,301,113.5l2.91,1a5.61,5.61,0,0,1,1.76-2.05,5.52,5.52,0,0,1,3.44-1,4.26,4.26,0,0,1,3.17,1.07,4.08,4.08,0,0,1,1.05,3v.11a1.1,1.1,0,0,1-.53,1,4.49,4.49,0,0,1-1.66.42c-.76.08-1.75.2-3,.36-.93.12-1.85.28-2.77.49a9.4,9.4,0,0,0-2.5.91,4.82,4.82,0,0,0-1.81,1.69,5.15,5.15,0,0,0-.67,2.79,5.66,5.66,0,0,0,3.36,5.41,8.1,8.1,0,0,0,3.45.72,7.38,7.38,0,0,0,3-.52,5.82,5.82,0,0,0,1.94-1.26,5.33,5.33,0,0,0,1-1.39h.16v2.71h3.07V115.9a7.88,7.88,0,0,0-.78-3.8A5.46,5.46,0,0,0,313.69,110Zm-.33,11.85a4.76,4.76,0,0,1-.65,2.38,4.88,4.88,0,0,1-1.9,1.84,6.06,6.06,0,0,1-3.07.72,5.23,5.23,0,0,1-3-.82,2.73,2.73,0,0,1-1.19-2.41,2.57,2.57,0,0,1,.64-1.85,3.82,3.82,0,0,1,1.66-1,12.35,12.35,0,0,1,2.23-.5l1.29-.16,1.66-.24a13.85,13.85,0,0,0,1.5-.32,1.93,1.93,0,0,0,.86-.42Z"/><rect class="cls-1" x="329.37" y="102.42" width="3.07" height="26.63"/><path class="cls-1" d="M378.76,116.55a11.21,11.21,0,0,0-2.46-1.31,23.52,23.52,0,0,0-2.32-.75l-2.7-.73c-.5-.13-1-.3-1.63-.51a9.09,9.09,0,0,1-1.69-.82,4.19,4.19,0,0,1-1.32-1.26,3.22,3.22,0,0,1-.51-1.83,3.76,3.76,0,0,1,.73-2.28,5,5,0,0,1,2.06-1.57,7.73,7.73,0,0,1,3.08-.57,7.27,7.27,0,0,1,4.09,1.09,4.1,4.1,0,0,1,1.9,3.07h3.12a6.33,6.33,0,0,0-1.24-3.6,8.17,8.17,0,0,0-3.18-2.51,10.92,10.92,0,0,0-4.58-.91,11.07,11.07,0,0,0-4.61.93,8,8,0,0,0-3.28,2.6A6.47,6.47,0,0,0,363,109.5a5.61,5.61,0,0,0,1.83,4.35,12.2,12.2,0,0,0,4.94,2.57l3.27.93a21.7,21.7,0,0,1,2.62.91,5.46,5.46,0,0,1,1.95,1.35,3.16,3.16,0,0,1,.74,2.16,4,4,0,0,1-.86,2.55,5.7,5.7,0,0,1-2.33,1.69,8.68,8.68,0,0,1-3.31.6,9.14,9.14,0,0,1-3-.47,5.43,5.43,0,0,1-2.26-1.46,4,4,0,0,1-1-2.49h-3.33a7.3,7.3,0,0,0,1.34,3.84,7.86,7.86,0,0,0,3.28,2.57,13.82,13.82,0,0,0,10.17-.1,7.84,7.84,0,0,0,3.28-2.77,7.07,7.07,0,0,0,1.12-3.9,6,6,0,0,0-.77-3.16A6.81,6.81,0,0,0,378.76,116.55Z"/><path class="cls-1" d="M401.18,125H401l-5.52-15.92h-3.32l7.38,20.08-.57,1.56a6.28,6.28,0,0,1-1.23,2.21,2.46,2.46,0,0,1-1.53.76,5.94,5.94,0,0,1-2-.21l-.78,2.7a3.41,3.41,0,0,0,.84.24,6.51,6.51,0,0,0,1.39.13,6.15,6.15,0,0,0,2.51-.5,5.31,5.31,0,0,0,1.95-1.51,8.6,8.6,0,0,0,1.42-2.57L410,109.08h-3.33Z"/><path class="cls-1" d="M430.61,118.08l-3-.73a7,7,0,0,1-2.6-1.1,2.22,2.22,0,0,1-.83-1.81,2.51,2.51,0,0,1,1.22-2.13,5.23,5.23,0,0,1,3.05-.84,5,5,0,0,1,2.19.43A3.75,3.75,0,0,1,432,113a5,5,0,0,1,.76,1.34l2.76-.78a7.07,7.07,0,0,0-2.41-3.43,7.48,7.48,0,0,0-4.66-1.3,9.22,9.22,0,0,0-3.77.74,6.48,6.48,0,0,0-2.61,2,4.92,4.92,0,0,0-1,3,4.85,4.85,0,0,0,1.28,3.44,7.92,7.92,0,0,0,4,2l3.33.78A4.56,4.56,0,0,1,432,121.9a2.32,2.32,0,0,1,.73,1.75,2.66,2.66,0,0,1-1.27,2.2,5.7,5.7,0,0,1-3.41.92A5.24,5.24,0,0,1,425,126a4,4,0,0,1-1.58-2.42l-2.91.73a5.9,5.9,0,0,0,2.53,3.88,9,9,0,0,0,5.06,1.32,10,10,0,0,0,4.09-.78,6.56,6.56,0,0,0,2.73-2.13,5.07,5.07,0,0,0,1-3.07,4.67,4.67,0,0,0-1.32-3.43A8.12,8.12,0,0,0,430.61,118.08Z"/><path class="cls-1" d="M455.78,126.29a4.84,4.84,0,0,1-.84.06,3.9,3.9,0,0,1-1.28-.21,1.94,1.94,0,0,1-1-.86,4,4,0,0,1-.38-2V111.68h4.27v-2.6h-4.27v-4.79h-3.07v4.79h-3v2.6h3v12.49a4.79,4.79,0,0,0,.82,2.88,5,5,0,0,0,2,1.71,6.2,6.2,0,0,0,2.54.56,6.87,6.87,0,0,0,1.42-.13,6.28,6.28,0,0,0,.87-.24l-.62-2.76Z"/><path class="cls-1" d="M482.22,111a7.82,7.82,0,0,0-2.77-1.68,9.4,9.4,0,0,0-3.08-.52,8.45,8.45,0,0,0-4.73,1.32,8.78,8.78,0,0,0-3.15,3.67,12.37,12.37,0,0,0-1.12,5.41,12.14,12.14,0,0,0,1.12,5.38,8.42,8.42,0,0,0,3.21,3.59,9.3,9.3,0,0,0,5,1.28,10,10,0,0,0,3.65-.63,7.42,7.42,0,0,0,2.73-1.77,6.5,6.5,0,0,0,1.58-2.64l-3-.84a4.46,4.46,0,0,1-2.8,2.78,6.58,6.58,0,0,1-2.19.35,6.45,6.45,0,0,1-3.27-.82,5.57,5.57,0,0,1-2.19-2.38,8.32,8.32,0,0,1-.77-3.41H485v-1.3a13.15,13.15,0,0,0-.74-4.71A8.34,8.34,0,0,0,482.22,111Zm-11.76,6.44a6.79,6.79,0,0,1,.69-2.63,6,6,0,0,1,2.05-2.35,5.52,5.52,0,0,1,3.17-.9,5.35,5.35,0,0,1,2.89.76,5.21,5.21,0,0,1,1.9,2.1,6.68,6.68,0,0,1,.67,3Z"/><path class="cls-1" d="M521.47,110.49a6,6,0,0,0-4.38-1.67,7.05,7.05,0,0,0-3.68.92,5.88,5.88,0,0,0-2.31,2.46h-.2a6,6,0,0,0-2.06-2.49,5.8,5.8,0,0,0-3.3-.89,6.08,6.08,0,0,0-3.34.89,5.12,5.12,0,0,0-2,2.49h-.26v-3.12h-3v20H500V116.57a5.1,5.1,0,0,1,.64-2.59,4.8,4.8,0,0,1,1.66-1.77,4.2,4.2,0,0,1,2.23-.63,4,4,0,0,1,2.85,1,3.61,3.61,0,0,1,1.1,2.75v13.69h3.13v-13a4.55,4.55,0,0,1,1.15-3.2,4.18,4.18,0,0,1,3.27-1.27,4.45,4.45,0,0,1,2.85,1,3.78,3.78,0,0,1,1.2,3.16v13.37h3.07V115.69C523.17,113.34,522.61,111.61,521.47,110.49Z"/></g></g></svg>