<svg xmlns="http://www.w3.org/2000/svg" viewBox="0 0 144.87 148.89"><defs><style>.cls-1{fill:#fff;}</style></defs><g id="Layer_2" data-name="Layer 2"><g id="Layer_1-2" data-name="Layer 1"><path class="cls-1" d="M129.59,20c-6.56,0-12.54-.08-18.52.07a7.14,7.14,0,0,0-3.28,1.44c-5.32,3.42-12.05,2.66-15.91-1.87A12.31,12.31,0,0,1,92,4c4.27-4.67,10.28-5.17,15.91-1.66A11.7,11.7,0,0,0,113.66,4c10.16.16,20.32.08,31,.08.08,1.54.2,2.87.2,4.2,0,23.13.08,46.27,0,69.41-.11,35-28.77,66.41-63.5,70.68C42.58,153.12,6.59,125.31,1,85.06-.12,77,.18,68.66.13,60.45,0,43.17.21,25.88,0,8.6,0,4.82,1.11,3.88,4.73,4c9.33.23,18.67.15,28,0A9.86,9.86,0,0,0,37.65,2.4c5.56-3.57,11.83-3.11,16,1.42A12.1,12.1,0,0,1,54,19.51c-3.83,4.61-10.4,5.4-15.89,2.18a11.61,11.61,0,0,0-5.33-1.6c-5.4-.21-10.82-.08-16.44-.08-.14,1.43-.33,2.5-.33,3.57,0,17.84-.12,35.68,0,53.52.23,24.45,17.25,46.94,40.63,54,27.36,8.29,57.08-6.07,67.92-32.7a67.24,67.24,0,0,0,4.78-25.23c.11-16.45.15-32.89.22-49.33C129.6,22.77,129.59,21.67,129.59,20Z"/><path class="cls-1" d="M61.81,85.27c-5.23,0-9.94,0-14.65,0C39.83,85.17,35,80.74,35,74.33s4.87-10.64,12.3-10.72c4.45,0,8.91-.07,13.37-.13.23,0,.47-.22,1.13-.55,0-4.92-.14-10,0-15.16.16-4.66,2.3-8.3,6.7-10.21,4.12-1.78,8.23-1.12,11.14,2.12A14.33,14.33,0,0,1,83,47.35c.51,5.09.15,10.27.15,16.25,5.37,0,10.59-.07,15.81,0s9.16,2.81,10.69,7.17c2.57,7.29-2.45,14.1-10.84,14.45-5,.2-10,0-15.66,0,0,5.1,0,9.92,0,14.73,0,7.41-3.94,12-10.25,12.17s-11-4.8-11.08-12C61.75,95.4,61.81,90.68,61.81,85.27Zm20.73-1.06V64.86H63.15V84.21Z"/></g></g></svg>